<?xml version="1.0" encoding="utf-8"?>
<!DOCTYPE svg PUBLIC "-//W3C//DTD SVG 1.0//EN" "http://www.w3.org/TR/2001/REC-SVG-20010904/DTD/svg10.dtd">
<svg version="1.0" xmlns="http://www.w3.org/2000/svg" xmlns:xlink="http://www.w3.org/1999/xlink" x="0px" y="0px"
	 width="70.9px" height="34px" viewBox="0 0 70.9 34" enable-background="new 0 0 70.9 34" xml:space="preserve">
<line fill="none" stroke="#808080" stroke-width="0.498" stroke-miterlimit="10" stroke-dasharray="1,1" x1="52.1" y1="16.1" x2="11.9" y2="16.4"/>
<rect x="14.4" y="13.1" fill="#FFFFFF" stroke="#000000" stroke-width="0.398" stroke-miterlimit="10" width="1.8" height="6.3"/>
<rect x="14.6" y="18.3" fill="#33A237" width="1.4" height="0.9"/>
<rect x="67.5" y="17.1" fill="#33A237" width="1.9" height="2.8"/>
<path fill="#8BC2EB" d="M64,12.5H42.1c-1.1,0-2,0.9-2,2v4.1c0,1.1,0.9,2,2,2H64c1.1,0,2-0.9,2-2v-4.1C66.1,13.4,65.2,12.5,64,12.5z" />
<rect x="67.5" y="13.7" fill="none" stroke="#000000" stroke-width="0.398" stroke-miterlimit="10" width="1.8" height="6.3"/>
<path fill="#F2C80A" d="M10.9,12.9H2.8c-1.1,0-2,0.9-2,2V17c0,1.1,0.9,2,2,2h8.1c1.1,0,2-0.9,2-2v-2.1C12.9,13.8,12,12.9,10.9,12.9z "/>
<text transform="matrix(1 0 0 1 2.7585 17.0703)" font-family="'Arial-BoldMT'" font-size="2.9259">client</text>
<text transform="matrix(1 0 0 1 42.8914 24.0996)" font-family="'Arial-BoldItalicMT'" font-size="2.9259">only local data</text>
<text transform="matrix(1 0 0 1 44.9207 17.6934)" font-family="'Arial-BoldMT'" font-size="2.9259">local server</text>
</svg>
